<?xml version="1.0" encoding="UTF-8" standalone="no"?>
<!-- Created with Inkscape (http://www.inkscape.org/) -->

<svg
   version="1.1"
   id="svg686"
   width="333.22"
   height="384.76981"
   viewBox="0 0 333.22 384.76981"
   sodipodi:docname="steinstrasse.svg"
   inkscape:version="1.2.2 (b0a84865, 2022-12-01)"
   xml:space="preserve"
   inkscape:export-filename="sticker-hex-clipped.png"
   inkscape:export-xdpi="631"
   inkscape:export-ydpi="631"
   xmlns:inkscape="http://www.inkscape.org/namespaces/inkscape"
   xmlns:sodipodi="http://sodipodi.sourceforge.net/DTD/sodipodi-0.dtd"
   xmlns:xlink="http://www.w3.org/1999/xlink"
   xmlns="http://www.w3.org/2000/svg"
   xmlns:svg="http://www.w3.org/2000/svg"><defs
     id="defs690"><clipPath
       clipPathUnits="userSpaceOnUse"
       id="clipPath712"><path
         d="M 0,792 H 612 V 0 H 0 Z"
         id="path710" /></clipPath></defs><sodipodi:namedview
     id="namedview688"
     pagecolor="#ffffff"
     bordercolor="#666666"
     borderopacity="1.0"
     inkscape:showpageshadow="2"
     inkscape:pageopacity="0.0"
     inkscape:pagecheckerboard="true"
     inkscape:deskcolor="#d1d1d1"
     showgrid="false"
     inkscape:zoom="1.4684105"
     inkscape:cx="166.50658"
     inkscape:cy="192.3849"
     inkscape:window-width="1327"
     inkscape:window-height="785"
     inkscape:window-x="0"
     inkscape:window-y="25"
     inkscape:window-maximized="0"
     inkscape:current-layer="svg686"><inkscape:page
       x="0"
       y="0"
       id="page692"
       width="333.22"
       height="384.76981"
       inkscape:export-filename="sticker-hex-transparent.png"
       inkscape:export-xdpi="631"
       inkscape:export-ydpi="631" /></sodipodi:namedview><g
     id="g694"
     inkscape:groupmode="layer"
     inkscape:label="Page 1"
     transform="matrix(1.3333333,0,0,-1.3333333,-241.38933,869.31981)"><g
       id="g696"
       transform="translate(430.457,435.98987)"
       style="fill:#e9c6af;fill-opacity:1;stroke:none"><path
         d="M 0,0 -124.708,-72 -249.415,0 V 144 L -124.708,216 0,144 Z"
         style="fill:#e9c6af;fill-opacity:1;stroke:none;stroke-width:0.5;stroke-linecap:butt;stroke-linejoin:miter;stroke-miterlimit:10;stroke-dasharray:none;stroke-opacity:1"
         id="path698" /><path
         d="M 0,0 -124.708,-72 -249.415,0 v 144 l 124.707,72 124.70775826142,-72 z"
         style="fill:#8f8984;fill-opacity:1;stroke:none;stroke-width:0.5;stroke-linecap:butt;stroke-linejoin:miter;stroke-miterlimit:10;stroke-dasharray:none;stroke-opacity:1"
         id="path5913"
         sodipodi:nodetypes="ccccccc" /></g><g
       id="g585"
       transform="translate(555.16353,507.98988)"
       style="fill:#a05a2c;fill-opacity:1;stroke:none"><path
         style="fill:#3988c7;fill-opacity:1;stroke:none;stroke-width:0.5;stroke-linecap:butt;stroke-linejoin:miter;stroke-miterlimit:10;stroke-dasharray:none;stroke-opacity:1"
         d="M -124.708,-72 -249.415,0 v 144 l 124.70823,-72.000008 z"
         id="path581"
         sodipodi:nodetypes="ccccc" /></g><g
       id="g742"
       transform="translate(305.75075,507.98988)"
       style="fill:#784421;fill-opacity:1;stroke:none"><path
         style="fill:#4f95cd;fill-opacity:1;stroke:none;stroke-width:0.5;stroke-linecap:butt;stroke-linejoin:miter;stroke-miterlimit:10;stroke-dasharray:none;stroke-opacity:1"
         d="M 0,0 -124.708,-72 -124.70875,71.999992 0,144 Z"
         id="path740"
         sodipodi:nodetypes="ccccc" /></g><image
       width="163.0354"
       height="141.86726"
       preserveAspectRatio="none"
       xlink:href="../../../Desktop/Bildschirmfoto%202023-03-09%20um%2022.13.46.png"
       id="image471"
       x="452.69562"
       y="-535.09485"
       transform="scale(1,-1)" /><g
       id="g139017"
       transform="translate(-20.180929,-11.498437)"><path
         style="font-variation-settings:normal;opacity:1;vector-effect:none;fill:#fcfce0;fill-opacity:1;stroke:none;stroke-width:0.749999px;stroke-linecap:butt;stroke-linejoin:miter;stroke-miterlimit:4;stroke-dasharray:none;stroke-dashoffset:0;stroke-opacity:1;stop-color:#000000;stop-opacity:1"
         d="m 319.04201,546.98987 -15.75,9.225 v -23.25 l 2.25,-2.85 v -21.75 l 13.5,-7.875 z"
         id="path11502"
         sodipodi:nodetypes="ccccccc" /><path
         style="font-variation-settings:normal;opacity:1;vector-effect:none;fill:#868ca4;fill-opacity:1;stroke:none;stroke-width:0.749999px;stroke-linecap:butt;stroke-linejoin:miter;stroke-miterlimit:4;stroke-dasharray:none;stroke-dashoffset:0;stroke-opacity:1;stop-color:#000000;stop-opacity:1"
         d="m 334.79201,569.11487 -6,3.375 -27,-15.45 17.25,-10.05 z"
         id="path11504"
         sodipodi:nodetypes="ccccc" /><path
         style="font-variation-settings:normal;opacity:1;vector-effect:none;fill:#e9e8e6;fill-opacity:1;stroke:none;stroke-width:0.749999px;stroke-linecap:butt;stroke-linejoin:miter;stroke-miterlimit:4;stroke-dasharray:none;stroke-dashoffset:0;stroke-opacity:1;stop-color:#000000;stop-opacity:1"
         d="m 334.79201,561.61487 v 7.5 l -15.75,-22.125 v -7.5 z"
         id="path125842"
         sodipodi:nodetypes="ccccc" /></g><g
       id="g109497"
       transform="translate(-20.180929,-11.498437)"><path
         style="font-variation-settings:normal;vector-effect:none;fill:#929970;fill-opacity:1;stroke:none;stroke-width:0.749999px;stroke-linecap:butt;stroke-linejoin:miter;stroke-miterlimit:4;stroke-dasharray:none;stroke-dashoffset:0;stroke-opacity:1;stop-color:#000000"
         d="m 319.04201,539.48987 v -39 l 10.5,-6 v 39 z"
         id="path11496"
         sodipodi:nodetypes="ccccc" /><path
         style="font-variation-settings:normal;vector-effect:none;fill:#848694;fill-opacity:1;stroke:none;stroke-width:0.749999px;stroke-linecap:butt;stroke-linejoin:miter;stroke-miterlimit:4;stroke-dasharray:none;stroke-dashoffset:0;stroke-opacity:1;stop-color:#000000"
         d="m 344.54201,560.48987 -15,-27 -10.5,6 15,27 z"
         id="path11498"
         sodipodi:nodetypes="ccccc" /><path
         style="font-variation-settings:normal;vector-effect:none;fill:#a49381;fill-opacity:1;stroke:none;stroke-width:0.749999px;stroke-linecap:butt;stroke-linejoin:miter;stroke-miterlimit:4;stroke-dasharray:none;stroke-dashoffset:0;stroke-opacity:1;stop-color:#000000"
         d="m 344.54201,545.48987 -15,-27 v 15 l 15,27 z"
         id="path105757"
         sodipodi:nodetypes="ccccc" /><path
         style="font-variation-settings:normal;opacity:1;vector-effect:none;fill:#f057bc;fill-opacity:0.464419;stroke:none;stroke-width:0.749999px;stroke-linecap:butt;stroke-linejoin:miter;stroke-miterlimit:4;stroke-dasharray:none;stroke-dashoffset:0;stroke-opacity:1;stop-color:#000000;stop-opacity:1"
         d="m 323.7309,544.61494 -3.13332,-2.6111 0.83555,-2.50665 6.26664,-1.98444 2.92443,4.07332 z"
         id="path11500" /></g><g
       id="g79553"
       transform="translate(-20.180929,-11.498437)"><path
         style="font-variation-settings:normal;vector-effect:none;fill:#ece5df;fill-opacity:1;stroke:none;stroke-width:0.749999px;stroke-linecap:butt;stroke-linejoin:miter;stroke-miterlimit:4;stroke-dasharray:none;stroke-dashoffset:0;stroke-opacity:1;stop-color:#000000"
         d="m 337.79201,489.61487 v 30 l -8.25,4.875 v -30 z"
         id="path72748"
         sodipodi:nodetypes="ccccc" /><path
         style="font-variation-settings:normal;vector-effect:none;fill:#e7d2a7;fill-opacity:1;stroke:none;stroke-width:0.749999px;stroke-linecap:butt;stroke-linejoin:miter;stroke-miterlimit:4;stroke-dasharray:none;stroke-dashoffset:0;stroke-opacity:1;stop-color:#000000"
         d="m 346.04201,484.73987 v 30 l -8.25,4.875 v -30 z"
         id="path11442"
         sodipodi:nodetypes="ccccc" /><path
         style="font-variation-settings:normal;vector-effect:none;fill:#594e4c;fill-opacity:1;stroke:none;stroke-width:0.749999px;stroke-linecap:butt;stroke-linejoin:miter;stroke-miterlimit:4;stroke-dasharray:none;stroke-dashoffset:0;stroke-opacity:1;stop-color:#000000"
         d="m 341.54201,554.48987 -13.5,-29.175 18,-10.575 12,30 z"
         id="path11444"
         sodipodi:nodetypes="ccccc" /><path
         style="font-variation-settings:normal;vector-effect:none;fill:#f057bc;fill-opacity:0.464419;stroke:none;stroke-width:0.749999px;stroke-linecap:butt;stroke-linejoin:miter;stroke-miterlimit:4;stroke-dasharray:none;stroke-dashoffset:0;stroke-opacity:1;stop-color:#000000"
         d="m 335.45468,529.9606 -2.50666,-1.04444 -2.08887,-1.14889 0.7311,-2.29777 5.43109,-2.71554 1.98444,2.71554 -0.41778,2.82 z"
         id="path11446" /><path
         style="font-variation-settings:normal;vector-effect:none;fill:#f057bc;fill-opacity:0.464419;stroke:none;stroke-width:0.749999px;stroke-linecap:butt;stroke-linejoin:miter;stroke-miterlimit:4;stroke-dasharray:none;stroke-dashoffset:0;stroke-opacity:1;stop-color:#000000"
         d="m 342.24354,526.09617 -3.55109,-2.19333 -0.52222,-2.50665 6.57997,-2.81999 2.08888,2.81999 -1.14889,2.71554 z"
         id="path11448" /><path
         style="font-variation-settings:normal;vector-effect:none;fill:#ece5df;fill-opacity:1;stroke:none;stroke-width:0.749999px;stroke-linecap:butt;stroke-linejoin:miter;stroke-miterlimit:4;stroke-dasharray:none;stroke-dashoffset:0;stroke-opacity:1;stop-color:#000000"
         d="m 358.04201,544.73987 -12,-30 v -15 l 12,30 z"
         id="path79412"
         sodipodi:nodetypes="ccccc" /></g><g
       id="g70472"
       transform="translate(-20.180929,-11.498437)"><path
         style="font-variation-settings:normal;opacity:1;vector-effect:none;fill:#eae9e4;fill-opacity:1;stroke:none;stroke-width:0.749999px;stroke-linecap:butt;stroke-linejoin:miter;stroke-miterlimit:4;stroke-dasharray:none;stroke-dashoffset:0;stroke-opacity:1;stop-color:#000000;stop-opacity:1"
         d="m 346.04201,531.23987 v -46.5 l 18,-10.5 v 46.5 z"
         id="path11436"
         sodipodi:nodetypes="ccccc" /><path
         style="font-variation-settings:normal;opacity:1;vector-effect:none;fill:#574f55;fill-opacity:1;stroke:none;stroke-width:0.749999px;stroke-linecap:butt;stroke-linejoin:miter;stroke-miterlimit:4;stroke-dasharray:none;stroke-dashoffset:0;stroke-opacity:1;stop-color:#000000;stop-opacity:1"
         d="m 346.04201,531.23987 18,-10.5 16.5,9 -18,10.5 z"
         id="path11438"
         sodipodi:nodetypes="ccccc" /><path
         style="font-variation-settings:normal;opacity:1;vector-effect:none;fill:#a9acb7;fill-opacity:1;stroke:none;stroke-width:0.749999px;stroke-linecap:butt;stroke-linejoin:miter;stroke-miterlimit:4;stroke-dasharray:none;stroke-dashoffset:0;stroke-opacity:1;stop-color:#000000;stop-opacity:1"
         d="m 364.04201,520.73987 v -7.5 l 16.5,9 v 7.5 z"
         id="path62049"
         sodipodi:nodetypes="ccccc" /></g><g
       id="g51644"
       transform="translate(-20.180929,-11.498437)"><path
         style="font-variation-settings:normal;vector-effect:none;fill:#9b7379;fill-opacity:1;stroke:none;stroke-width:0.749999px;stroke-linecap:butt;stroke-linejoin:miter;stroke-miterlimit:4;stroke-dasharray:none;stroke-dashoffset:0;stroke-opacity:1;stop-color:#000000"
         d="m 388.04201,531.98987 -9,-30 10.5,-1.5 9,30.75 z"
         id="path24013"
         sodipodi:nodetypes="ccccc" /><path
         style="font-variation-settings:normal;vector-effect:none;fill:#ebefe1;fill-opacity:1;stroke:none;stroke-width:0.749999px;stroke-linecap:butt;stroke-linejoin:miter;stroke-miterlimit:4;stroke-dasharray:none;stroke-dashoffset:0;stroke-opacity:1;stop-color:#000000"
         d="m 364.04201,510.23987 v -36 l 15,-8.25 v 36 z"
         id="path11430"
         sodipodi:nodetypes="ccccc" /><path
         style="font-variation-settings:normal;vector-effect:none;fill:#78665b;fill-opacity:1;stroke:none;stroke-width:0.749999px;stroke-linecap:butt;stroke-linejoin:miter;stroke-miterlimit:4;stroke-dasharray:none;stroke-dashoffset:0;stroke-opacity:1;stop-color:#000000"
         d="m 373.04201,540.23987 -9.75,-29.625 15.75,-8.625 9,30 10.5,-0.75 -15,7.5 z"
         id="path11432"
         sodipodi:nodetypes="ccccccc" /><path
         style="font-variation-settings:normal;opacity:1;vector-effect:none;fill:#f057bc;fill-opacity:0.464419;stroke:none;stroke-width:0.749999px;stroke-linecap:butt;stroke-linejoin:miter;stroke-miterlimit:4;stroke-dasharray:none;stroke-dashoffset:0;stroke-opacity:1;stop-color:#000000;stop-opacity:1"
         d="m 376.88941,521.00523 -2.40221,-1.14889 -8.14664,-4.80443 0.10445,-2.29776 9.08662,-5.11776 0.20889,2.40222 2.40222,0.62666 z"
         id="path11434" /></g><g
       id="g11347"
       transform="translate(-20.180929,-11.498437)"><path
         style="font-variation-settings:normal;opacity:1;vector-effect:none;fill:#9e6f61;fill-opacity:1;stroke:none;stroke-width:0.749999px;stroke-linecap:butt;stroke-linejoin:miter;stroke-miterlimit:4;stroke-dasharray:none;stroke-dashoffset:0;stroke-opacity:1;stop-color:#000000;stop-opacity:1"
         d="m 379.04201,502.73987 v -36.75 l 17.25,-9.75 v 36.75 z"
         id="path11426"
         sodipodi:nodetypes="ccccc" /><path
         style="font-variation-settings:normal;opacity:1;vector-effect:none;fill:#5d5053;fill-opacity:1;stroke:none;stroke-width:0.749999px;stroke-linecap:butt;stroke-linejoin:miter;stroke-miterlimit:4;stroke-dasharray:none;stroke-dashoffset:0;stroke-opacity:1;stop-color:#000000;stop-opacity:1"
         d="m 398.54201,529.73987 -20.25,-26.625 18,-10.125 19.5,27 z"
         id="path11428"
         sodipodi:nodetypes="ccccc" /><path
         style="font-variation-settings:normal;opacity:1;vector-effect:none;fill:#d3c7c6;fill-opacity:1;stroke:none;stroke-width:0.749999px;stroke-linecap:butt;stroke-linejoin:miter;stroke-miterlimit:4;stroke-dasharray:none;stroke-dashoffset:0;stroke-opacity:1;stop-color:#000000;stop-opacity:1"
         d="m 396.29201,492.98987 v -15 l 19.5,27 v 15 z"
         id="path1362"
         sodipodi:nodetypes="ccccc" /></g><g
       id="g84687"
       transform="translate(-20.180929,-11.498437)"><path
         style="font-variation-settings:normal;opacity:1;vector-effect:none;fill:#dddfd2;fill-opacity:1;stroke:none;stroke-width:0.749999px;stroke-linecap:butt;stroke-linejoin:miter;stroke-miterlimit:4;stroke-dasharray:none;stroke-dashoffset:0;stroke-opacity:1;stop-color:#000000;stop-opacity:1"
         d="m 394.04201,487.36487 v -30 l 9.75,-5.625 v 30 z"
         id="path11422"
         sodipodi:nodetypes="ccccc" /><path
         style="font-variation-settings:normal;opacity:1;vector-effect:none;fill:#463935;fill-opacity:1;stroke:none;stroke-width:0.749999px;stroke-linecap:butt;stroke-linejoin:miter;stroke-miterlimit:4;stroke-dasharray:none;stroke-dashoffset:0;stroke-opacity:1;stop-color:#000000;stop-opacity:1"
         d="m 412.79201,510.98987 -19.5,-23.25 10.5,-6 16.5,24.831 z"
         id="path11424"
         sodipodi:nodetypes="ccccc" /></g><g
       id="g74295"
       transform="translate(-20.180929,-11.498437)"><path
         style="font-variation-settings:normal;opacity:1;vector-effect:none;fill:#edfeb0;fill-opacity:1;stroke:none;stroke-width:0.749999px;stroke-linecap:butt;stroke-linejoin:miter;stroke-miterlimit:4;stroke-dasharray:none;stroke-dashoffset:0;stroke-opacity:1;stop-color:#000000;stop-opacity:1"
         d="m 403.79201,478.73987 v -27 l 27,-15.75 20.25,12 v 27 l -20.25,-12 z"
         id="path11410"
         sodipodi:nodetypes="ccccccc" /><path
         style="font-variation-settings:normal;opacity:1;vector-effect:none;fill:#5d5048;fill-opacity:1;stroke:none;stroke-width:0.749999px;stroke-linecap:butt;stroke-linejoin:miter;stroke-miterlimit:4;stroke-dasharray:none;stroke-dashoffset:0;stroke-opacity:1;stop-color:#000000;stop-opacity:1"
         d="m 430.79201,462.98987 -28.425,16.575 20.85,31.425 7.575,-4.5 20.25,-31.5 z"
         id="path11420"
         sodipodi:nodetypes="cccccc" /><path
         style="font-variation-settings:normal;opacity:1;vector-effect:none;fill:#f057bc;fill-opacity:0.464419;stroke:none;stroke-width:0.749999px;stroke-linecap:butt;stroke-linejoin:miter;stroke-miterlimit:4;stroke-dasharray:none;stroke-dashoffset:0;stroke-opacity:1;stop-color:#000000;stop-opacity:1"
         d="m 411.49814,485.54473 -3.44665,-2.50666 -2.19333,-1.35777 0.41778,-2.71555 1.77555,-1.35777 0.62666,2.29777 2.50666,2.08888 z"
         id="path11412" /><path
         style="font-variation-settings:normal;opacity:1;vector-effect:none;fill:#f057bc;fill-opacity:0.464419;stroke:none;stroke-width:0.749999px;stroke-linecap:butt;stroke-linejoin:miter;stroke-miterlimit:4;stroke-dasharray:none;stroke-dashoffset:0;stroke-opacity:1;stop-color:#000000;stop-opacity:1"
         d="m 415.15368,476.45809 -0.20889,-3.13332 2.50666,-1.56666 0.20889,2.29777 2.92443,2.92444 -0.10445,2.81998 -2.50666,-0.93999 z"
         id="path11414" /><path
         style="font-variation-settings:normal;opacity:1;vector-effect:none;fill:#f057bc;fill-opacity:0.464419;stroke:none;stroke-width:0.749999px;stroke-linecap:butt;stroke-linejoin:miter;stroke-miterlimit:4;stroke-dasharray:none;stroke-dashoffset:0;stroke-opacity:1;stop-color:#000000;stop-opacity:1"
         d="m 421.73365,468.83368 3.5511,3.65554 0.10444,4.17776 -2.71555,-0.7311 -2.61109,-2.29777 -0.31334,-3.02888 z"
         id="path11416" /><path
         style="font-variation-settings:normal;opacity:1;vector-effect:none;fill:#f057bc;fill-opacity:0.464419;stroke:none;stroke-width:0.749999px;stroke-linecap:butt;stroke-linejoin:miter;stroke-miterlimit:4;stroke-dasharray:none;stroke-dashoffset:0;stroke-opacity:1;stop-color:#000000;stop-opacity:1"
         d="m 434.05804,477.60698 -0.31333,-3.34221 3.02887,-3.96887 2.71555,1.87999 v 2.08888 l -1.25333,0.94 z"
         id="path11418" /></g></g><path
     id="right-1"
     style="fill:#916f7c;stroke-width:0.859658;stroke-linecap:square"
     d="m 218.17716,342.81053 h 5 v 5 h -5 z" /><path
     id="right-2"
     style="fill:#916f7c;stroke-width:0.859658;stroke-linecap:square"
     d="m 285.30859,303.4671 h 5 v 5 h -5 z" /><path
     id="left-2"
     style="fill:#916f7c;stroke-width:0.859658;stroke-linecap:square"
     d="m 102.62304,231.65848 h 5 v 5 h -5 z" /><path
     id="left-1"
     style="fill:#916f7c;stroke-width:0.859658;stroke-linecap:square"
     d="m 13.756428,284.20808 h 5 v 5 h -5 z" /><path
     id="right-3"
     style="fill:#ff7f2a;fill-opacity:1;stroke-width:0.859658;stroke-linecap:square"
     d="m 74.009649,248.71646 h 5 v 5 h -5 z" /><path
     id="right-4"
     style="fill:#ff7f2a;fill-opacity:1;stroke-width:0.859658;stroke-linecap:square"
     d="m 135.91364,212.94971 h 5 v 5 h -5 z" /><path
     id="left-3"
     style="fill:#ff7f2a;fill-opacity:1;stroke-width:0.859658;stroke-linecap:square"
     d="m 164.52704,373.90008 h 5 v 5 h -5 z" /><path
     id="left-4"
     style="fill:#ff7f2a;fill-opacity:1;stroke-width:0.859658;stroke-linecap:square"
     d="m 242.3885,329.05408 h 5 v 5 h -5 z" /><path
     id="pr-1"
     style="fill:#92cd4f;fill-opacity:1;fill-rule:nonzero;stroke:none;stroke-width:0.00214223"
     d="m 287.86226,270.14616 c -2.00985,0 -3.63916,1.62931 -3.63916,3.63915 0,2.00985 1.62931,3.63947 3.63916,3.63947 2.00984,0 3.63915,-1.62962 3.63915,-3.63947 0,-2.00984 -1.62931,-3.63915 -3.63915,-3.63915 z m -2.27903,7.98494 c -2.45865,0 -4.45177,1.99313 -4.45177,4.45177 v 9.46802 c 0,0.64889 0.52601,1.1749 1.17489,1.1749 0.64867,0 1.1749,-0.52601 1.1749,-1.1749 v -8.27206 c 0,-0.12682 0.22957,-0.22988 0.22957,-0.22988 0,0 0.22957,0.10306 0.22957,0.22988 v 21.34968 c 0,1.0197 1.84599,1.84599 1.84599,1.84599 0,0 1.84631,-0.82629 1.84631,-1.84599 v -10.9596 c 0,-0.12682 0.22957,-0.22957 0.22957,-0.22957 0,0 0.22957,0.10275 0.22957,0.22957 v 10.9596 c 0,1.0197 1.8463,1.84599 1.8463,1.84599 0,0 1.846,-0.82629 1.846,-1.84599 v -21.34968 c 0,-0.12682 0.22957,-0.22988 0.22957,-0.22988 0,0 0.22957,0.10306 0.22957,0.22988 v 8.27206 c 0,0.64889 0.52622,1.1749 1.17489,1.1749 0.64888,0 1.17489,-0.52601 1.17489,-1.1749 v -9.46802 c 0,-2.45864 -1.99312,-4.45177 -4.45176,-4.45177 z" /><path
     id="pl-1"
     style="fill:#cd4f86;fill-opacity:1;fill-rule:nonzero;stroke:none;stroke-width:0.00377953;stroke-dasharray:none"
     d="m 105.34095,198.43328 c -2.00985,0 -3.63916,1.62931 -3.63916,3.63915 0,2.00985 1.62931,3.63947 3.63916,3.63947 2.00984,0 3.63915,-1.62962 3.63915,-3.63947 0,-2.00984 -1.62931,-3.63915 -3.63915,-3.63915 z m -2.27903,7.98494 c -2.45865,0 -4.451769,1.99313 -4.451769,4.45177 v 9.46802 c 0,0.64889 0.52601,1.1749 1.17489,1.1749 0.648669,0 1.174899,-0.52601 1.174899,-1.1749 v -8.27206 c 0,-0.12682 0.22957,-0.22988 0.22957,-0.22988 0,0 0.22957,0.10306 0.22957,0.22988 v 21.34968 c 0,1.0197 1.84599,1.84599 1.84599,1.84599 0,0 1.84631,-0.82629 1.84631,-1.84599 v -10.9596 c 0,-0.12682 0.22957,-0.22957 0.22957,-0.22957 0,0 0.22957,0.10275 0.22957,0.22957 v 10.9596 c 0,1.0197 1.8463,1.84599 1.8463,1.84599 0,0 1.846,-0.82629 1.846,-1.84599 v -21.34968 c 0,-0.12682 0.22957,-0.22988 0.22957,-0.22988 0,0 0.22957,0.10306 0.22957,0.22988 v 8.27206 c 0,0.64889 0.52622,1.1749 1.17489,1.1749 0.64888,0 1.17489,-0.52601 1.17489,-1.1749 v -9.46802 c 0,-2.45864 -1.99312,-4.45177 -4.45176,-4.45177 z" /><g
     id="g4687"
     transform="translate(3.3159311,-22.208083)"><path
       style="font-variation-settings:normal;opacity:1;vector-effect:none;fill:#90bacd;fill-opacity:1;stroke:none;stroke-width:0.749999px;stroke-linecap:butt;stroke-linejoin:miter;stroke-miterlimit:4;stroke-dasharray:none;stroke-dashoffset:0;stroke-opacity:1;stop-color:#000000;stop-opacity:1"
       d="m 383.86323,445.4777 0.0164,-5.16732 4.16666,-2.49343 -0.0656,5.46259 -2.0013,1.5584 z"
       id="path4683"
       transform="matrix(1.3333333,0,0,-1.3333333,-241.38933,869.31981)" /><path
       id="path4685"
       style="opacity:1;fill:#fcfdfa;fill-opacity:1;stroke-width:1.88976;stroke-linecap:square"
       d="m 273.18033,275.62696 c -0.97422,-0.45404 -3.05859,-0.82586 -3.05859,-0.82586 v 1.01758 l 0.006,-0.002 v 6.53907 l 6.14645,3.59386 v -6.53711 c 2e-5,10e-6 0.002,0 0.002,0 v -1.01758 c -0.27323,-1.05445 -2.12164,-2.31392 -3.09586,-2.76796 z m 0.25586,1.25274 c 0.99558,0.4326 2.16668,1.33895 2.17187,1.89286 v 0.9707 l -2.17187,-1.31083 z m -0.4707,-0.22144 v 1.55078 l -2.17188,-1.31479 v -0.96289 c 0.62844,0.0134 1.46085,0.2404 2.17188,0.7269 z m -2.17188,0.7067 2.17188,1.31479 v 1.04687 l -2.17188,-1.31479 z m 2.64258,1.53823 2.17187,1.31083 v 1.04687 l -2.17187,-1.31083 z m -2.64258,-0.25694 2.17188,1.31479 v 1.04882 l -2.17188,-1.31479 z m 2.64258,1.53823 2.17187,1.31083 v 1.04882 l -2.17187,-1.31083 z m -2.64258,-0.25504 2.17188,1.31479 v 1.04687 l -2.17188,-1.31479 z m 2.64258,1.53823 2.17187,1.31083 v 1.04687 l -2.17187,-1.31083 z m -2.64258,-0.25694 2.17188,1.31479 v 1.04883 l -2.17188,-1.31479 z m 2.64258,1.53823 2.17187,1.31083 v 1.04883 l -2.17187,-1.31083 z"
       sodipodi:nodetypes="zcccccccczcccccccccccccccccccccccccccccccccccccccccccccccccc" /></g><g
     id="g4693"
     transform="translate(14.725377,-15.397701)"><path
       style="font-variation-settings:normal;opacity:1;vector-effect:none;fill:#90bacd;fill-opacity:1;stroke:none;stroke-width:0.749999px;stroke-linecap:butt;stroke-linejoin:miter;stroke-miterlimit:4;stroke-dasharray:none;stroke-dashoffset:0;stroke-opacity:1;stop-color:#000000;stop-opacity:1"
       d="m 383.86323,445.4777 0.0164,-5.16732 4.16666,-2.49343 -0.0656,5.46259 -2.0013,1.5584 z"
       id="path4689"
       transform="matrix(1.3333333,0,0,-1.3333333,-241.38933,869.31981)" /><path
       id="path4691"
       style="opacity:1;fill:#fcfdfa;fill-opacity:1;stroke-width:1.88976;stroke-linecap:square"
       d="m 273.18033,275.62696 c -0.97422,-0.45404 -3.05859,-0.82586 -3.05859,-0.82586 v 1.01758 l 0.006,-0.002 v 6.53907 l 6.14645,3.59386 v -6.53711 c 2e-5,10e-6 0.002,0 0.002,0 v -1.01758 c -0.27323,-1.05445 -2.12164,-2.31392 -3.09586,-2.76796 z m 0.25586,1.25274 c 0.99558,0.4326 2.16668,1.33895 2.17187,1.89286 v 0.9707 l -2.17187,-1.31083 z m -0.4707,-0.22144 v 1.55078 l -2.17188,-1.31479 v -0.96289 c 0.62844,0.0134 1.46085,0.2404 2.17188,0.7269 z m -2.17188,0.7067 2.17188,1.31479 v 1.04687 l -2.17188,-1.31479 z m 2.64258,1.53823 2.17187,1.31083 v 1.04687 l -2.17187,-1.31083 z m -2.64258,-0.25694 2.17188,1.31479 v 1.04882 l -2.17188,-1.31479 z m 2.64258,1.53823 2.17187,1.31083 v 1.04882 l -2.17187,-1.31083 z m -2.64258,-0.25504 2.17188,1.31479 v 1.04687 l -2.17188,-1.31479 z m 2.64258,1.53823 2.17187,1.31083 v 1.04687 l -2.17187,-1.31083 z m -2.64258,-0.25694 2.17188,1.31479 v 1.04883 l -2.17188,-1.31479 z m 2.64258,1.53823 2.17187,1.31083 v 1.04883 l -2.17187,-1.31083 z"
       sodipodi:nodetypes="zcccccccczcccccccccccccccccccccccccccccccccccccccccccccccccc" /></g><g
     id="g4705"
     transform="translate(26.134822,-8.684497)"><path
       style="font-variation-settings:normal;opacity:1;vector-effect:none;fill:#90bacd;fill-opacity:1;stroke:none;stroke-width:0.749999px;stroke-linecap:butt;stroke-linejoin:miter;stroke-miterlimit:4;stroke-dasharray:none;stroke-dashoffset:0;stroke-opacity:1;stop-color:#000000;stop-opacity:1"
       d="m 383.86323,445.4777 0.0164,-5.16732 4.16666,-2.49343 -0.0656,5.46259 -2.0013,1.5584 z"
       id="path4701"
       transform="matrix(1.3333333,0,0,-1.3333333,-241.38933,869.31981)" /><path
       id="path4703"
       style="opacity:1;fill:#fcfdfa;fill-opacity:1;stroke-width:1.88976;stroke-linecap:square"
       d="m 273.18033,275.62696 c -0.97422,-0.45404 -3.05859,-0.82586 -3.05859,-0.82586 v 1.01758 l 0.006,-0.002 v 6.53907 l 6.14645,3.59386 v -6.53711 c 2e-5,10e-6 0.002,0 0.002,0 v -1.01758 c -0.27323,-1.05445 -2.12164,-2.31392 -3.09586,-2.76796 z m 0.25586,1.25274 c 0.99558,0.4326 2.16668,1.33895 2.17187,1.89286 v 0.9707 l -2.17187,-1.31083 z m -0.4707,-0.22144 v 1.55078 l -2.17188,-1.31479 v -0.96289 c 0.62844,0.0134 1.46085,0.2404 2.17188,0.7269 z m -2.17188,0.7067 2.17188,1.31479 v 1.04687 l -2.17188,-1.31479 z m 2.64258,1.53823 2.17187,1.31083 v 1.04687 l -2.17187,-1.31083 z m -2.64258,-0.25694 2.17188,1.31479 v 1.04882 l -2.17188,-1.31479 z m 2.64258,1.53823 2.17187,1.31083 v 1.04882 l -2.17187,-1.31083 z m -2.64258,-0.25504 2.17188,1.31479 v 1.04687 l -2.17188,-1.31479 z m 2.64258,1.53823 2.17187,1.31083 v 1.04687 l -2.17187,-1.31083 z m -2.64258,-0.25694 2.17188,1.31479 v 1.04883 l -2.17188,-1.31479 z m 2.64258,1.53823 2.17187,1.31083 v 1.04883 l -2.17187,-1.31083 z"
       sodipodi:nodetypes="zcccccccczcccccccccccccccccccccccccccccccccccccccccccccccccc" /></g></svg>
