<?xml version="1.0" encoding="UTF-8" standalone="no"?>
<!-- Created with Inkscape (http://www.inkscape.org/) -->

<svg
   version="1.1"
   id="svg686"
   width="332.55099"
   height="384.76999"
   viewBox="0 0 332.55099 384.76999"
   sodipodi:docname="steinstrasse.svg"
   inkscape:version="1.2.2 (b0a84865, 2022-12-01)"
   xml:space="preserve"
   inkscape:export-filename="sticker-hex-clipped.png"
   inkscape:export-xdpi="631"
   inkscape:export-ydpi="631"
   xmlns:inkscape="http://www.inkscape.org/namespaces/inkscape"
   xmlns:sodipodi="http://sodipodi.sourceforge.net/DTD/sodipodi-0.dtd"
   xmlns:xlink="http://www.w3.org/1999/xlink"
   xmlns="http://www.w3.org/2000/svg"
   xmlns:svg="http://www.w3.org/2000/svg"><defs
     id="defs690"><clipPath
       clipPathUnits="userSpaceOnUse"
       id="clipPath712"><path
         d="M 0,792 H 612 V 0 H 0 Z"
         id="path710" /></clipPath></defs><sodipodi:namedview
     id="namedview688"
     pagecolor="#ffffff"
     bordercolor="#666666"
     borderopacity="1.0"
     inkscape:showpageshadow="2"
     inkscape:pageopacity="0.0"
     inkscape:pagecheckerboard="true"
     inkscape:deskcolor="#d1d1d1"
     showgrid="false"
     inkscape:zoom="13.210459"
     inkscape:cx="289.05127"
     inkscape:cy="278.605"
     inkscape:window-width="1327"
     inkscape:window-height="785"
     inkscape:window-x="0"
     inkscape:window-y="25"
     inkscape:window-maximized="0"
     inkscape:current-layer="svg686"><inkscape:page
       x="0"
       y="0"
       id="page692"
       width="332.55099"
       height="384.76999"
       inkscape:export-filename="sticker-hex-transparent.png"
       inkscape:export-xdpi="631"
       inkscape:export-ydpi="631" /></sodipodi:namedview><g
     id="g694"
     inkscape:groupmode="layer"
     inkscape:label="Page 1"
     transform="matrix(1.3333333,0,0,-1.3333333,-241.38933,869.31981)"><g
       id="g696"
       transform="translate(430.457,435.98987)"
       style="fill:#e9c6af;fill-opacity:1;stroke:none"><path
         d="M 0,0 -124.708,-72 -249.415,0 V 144 L -124.708,216 0,144 Z"
         style="fill:#e9c6af;fill-opacity:1;stroke:none;stroke-width:0.5;stroke-linecap:butt;stroke-linejoin:miter;stroke-miterlimit:10;stroke-dasharray:none;stroke-opacity:1"
         id="path698" /><path
         d="M 0,0 -124.708,-72 -249.415,0 v 144 l 124.707,72 124.70775826142,-72 z"
         style="fill:#8f8984;fill-opacity:1;stroke:none;stroke-width:0.5;stroke-linecap:butt;stroke-linejoin:miter;stroke-miterlimit:10;stroke-dasharray:none;stroke-opacity:1"
         id="path5913"
         sodipodi:nodetypes="ccccccc" /></g><g
       id="g585"
       transform="translate(555.16353,507.98988)"
       style="fill:#a05a2c;fill-opacity:1;stroke:none"><path
         style="fill:#3988c7;fill-opacity:1;stroke:none;stroke-width:0.5;stroke-linecap:butt;stroke-linejoin:miter;stroke-miterlimit:10;stroke-dasharray:none;stroke-opacity:1"
         d="M -124.70827,-72 -249.415,0 v 144 l 124.70673,-72.000008 z"
         id="path581"
         sodipodi:nodetypes="ccccc" /></g><g
       id="g742"
       transform="translate(305.75075,507.98988)"
       style="fill:#784421;fill-opacity:1;stroke:none"><path
         style="fill:#4f95cd;fill-opacity:1;stroke:none;stroke-width:0.5;stroke-linecap:butt;stroke-linejoin:miter;stroke-miterlimit:10;stroke-dasharray:none;stroke-opacity:1"
         d="M 0,0 -124.708,-72 -124.70875,71.999992 0,144 Z"
         id="path740"
         sodipodi:nodetypes="ccccc" /></g><image
       width="163.0354"
       height="141.86726"
       preserveAspectRatio="none"
       xlink:href="../../../Desktop/Bildschirmfoto%202023-03-09%20um%2022.13.46.png"
       id="image471"
       x="452.69562"
       y="-535.09485"
       transform="scale(1,-1)" /><g
       id="g139017"
       transform="translate(-20.180929,-11.498437)"><path
         style="font-variation-settings:normal;opacity:1;vector-effect:none;fill:#fcfce0;fill-opacity:1;stroke:none;stroke-width:0.749999px;stroke-linecap:butt;stroke-linejoin:miter;stroke-miterlimit:4;stroke-dasharray:none;stroke-dashoffset:0;stroke-opacity:1;stop-color:#000000;stop-opacity:1"
         d="m 319.04201,546.98987 -15.75,9.225 v -23.25 l 2.25,-2.85 v -21.75 l 13.5,-7.875 z"
         id="path11502"
         sodipodi:nodetypes="ccccccc" /><path
         style="font-variation-settings:normal;opacity:1;vector-effect:none;fill:#868ca4;fill-opacity:1;stroke:none;stroke-width:0.749999px;stroke-linecap:butt;stroke-linejoin:miter;stroke-miterlimit:4;stroke-dasharray:none;stroke-dashoffset:0;stroke-opacity:1;stop-color:#000000;stop-opacity:1"
         d="m 334.79201,569.11487 -6,3.375 -27,-15.45 17.25,-10.05 z"
         id="path11504"
         sodipodi:nodetypes="ccccc" /><path
         style="font-variation-settings:normal;opacity:1;vector-effect:none;fill:#e9e8e6;fill-opacity:1;stroke:none;stroke-width:0.749999px;stroke-linecap:butt;stroke-linejoin:miter;stroke-miterlimit:4;stroke-dasharray:none;stroke-dashoffset:0;stroke-opacity:1;stop-color:#000000;stop-opacity:1"
         d="m 334.79201,561.61487 v 7.5 l -15.75,-22.125 v -7.5 z"
         id="path125842"
         sodipodi:nodetypes="ccccc" /></g><g
       id="g109497"
       transform="translate(-20.180929,-11.498437)"><path
         style="font-variation-settings:normal;vector-effect:none;fill:#929970;fill-opacity:1;stroke:none;stroke-width:0.749999px;stroke-linecap:butt;stroke-linejoin:miter;stroke-miterlimit:4;stroke-dasharray:none;stroke-dashoffset:0;stroke-opacity:1;stop-color:#000000"
         d="m 319.04201,539.48987 v -39 l 10.5,-6 v 39 z"
         id="path11496"
         sodipodi:nodetypes="ccccc" /><path
         style="font-variation-settings:normal;vector-effect:none;fill:#848694;fill-opacity:1;stroke:none;stroke-width:0.749999px;stroke-linecap:butt;stroke-linejoin:miter;stroke-miterlimit:4;stroke-dasharray:none;stroke-dashoffset:0;stroke-opacity:1;stop-color:#000000"
         d="m 344.54201,560.48987 -15,-27 -10.5,6 15,27 z"
         id="path11498"
         sodipodi:nodetypes="ccccc" /><path
         style="font-variation-settings:normal;vector-effect:none;fill:#a49381;fill-opacity:1;stroke:none;stroke-width:0.749999px;stroke-linecap:butt;stroke-linejoin:miter;stroke-miterlimit:4;stroke-dasharray:none;stroke-dashoffset:0;stroke-opacity:1;stop-color:#000000"
         d="m 344.54201,545.48987 -15,-27 v 15 l 15,27 z"
         id="path105757"
         sodipodi:nodetypes="ccccc" /><path
         style="font-variation-settings:normal;opacity:1;vector-effect:none;fill:#f057bc;fill-opacity:0.464419;stroke:none;stroke-width:0.749999px;stroke-linecap:butt;stroke-linejoin:miter;stroke-miterlimit:4;stroke-dasharray:none;stroke-dashoffset:0;stroke-opacity:1;stop-color:#000000;stop-opacity:1"
         d="m 323.7309,544.61494 -3.13332,-2.6111 0.83555,-2.50665 6.26664,-1.98444 2.92443,4.07332 z"
         id="path11500" /></g><g
       id="g79553"
       transform="translate(-20.180929,-11.498437)"><path
         style="font-variation-settings:normal;vector-effect:none;fill:#ece5df;fill-opacity:1;stroke:none;stroke-width:0.749999px;stroke-linecap:butt;stroke-linejoin:miter;stroke-miterlimit:4;stroke-dasharray:none;stroke-dashoffset:0;stroke-opacity:1;stop-color:#000000"
         d="m 337.79201,489.61487 v 30 l -8.25,4.875 v -30 z"
         id="path72748"
         sodipodi:nodetypes="ccccc" /><path
         style="font-variation-settings:normal;vector-effect:none;fill:#e7d2a7;fill-opacity:1;stroke:none;stroke-width:0.749999px;stroke-linecap:butt;stroke-linejoin:miter;stroke-miterlimit:4;stroke-dasharray:none;stroke-dashoffset:0;stroke-opacity:1;stop-color:#000000"
         d="m 346.04201,484.73987 v 30 l -8.25,4.875 v -30 z"
         id="path11442"
         sodipodi:nodetypes="ccccc" /><path
         style="font-variation-settings:normal;vector-effect:none;fill:#594e4c;fill-opacity:1;stroke:none;stroke-width:0.749999px;stroke-linecap:butt;stroke-linejoin:miter;stroke-miterlimit:4;stroke-dasharray:none;stroke-dashoffset:0;stroke-opacity:1;stop-color:#000000"
         d="m 341.54201,554.48987 -13.5,-29.175 18,-10.575 12,30 z"
         id="path11444"
         sodipodi:nodetypes="ccccc" /><path
         style="font-variation-settings:normal;vector-effect:none;fill:#f057bc;fill-opacity:0.464419;stroke:none;stroke-width:0.749999px;stroke-linecap:butt;stroke-linejoin:miter;stroke-miterlimit:4;stroke-dasharray:none;stroke-dashoffset:0;stroke-opacity:1;stop-color:#000000"
         d="m 335.45468,529.9606 -2.50666,-1.04444 -2.08887,-1.14889 0.7311,-2.29777 5.43109,-2.71554 1.98444,2.71554 -0.41778,2.82 z"
         id="path11446" /><path
         style="font-variation-settings:normal;vector-effect:none;fill:#f057bc;fill-opacity:0.464419;stroke:none;stroke-width:0.749999px;stroke-linecap:butt;stroke-linejoin:miter;stroke-miterlimit:4;stroke-dasharray:none;stroke-dashoffset:0;stroke-opacity:1;stop-color:#000000"
         d="m 342.24354,526.09617 -3.55109,-2.19333 -0.52222,-2.50665 6.57997,-2.81999 2.08888,2.81999 -1.14889,2.71554 z"
         id="path11448" /><path
         style="font-variation-settings:normal;vector-effect:none;fill:#ece5df;fill-opacity:1;stroke:none;stroke-width:0.749999px;stroke-linecap:butt;stroke-linejoin:miter;stroke-miterlimit:4;stroke-dasharray:none;stroke-dashoffset:0;stroke-opacity:1;stop-color:#000000"
         d="m 358.04201,544.73987 -12,-30 v -15 l 12,30 z"
         id="path79412"
         sodipodi:nodetypes="ccccc" /></g><g
       id="g70472"
       transform="translate(-20.180929,-11.498437)"><path
         style="font-variation-settings:normal;opacity:1;vector-effect:none;fill:#eae9e4;fill-opacity:1;stroke:none;stroke-width:0.749999px;stroke-linecap:butt;stroke-linejoin:miter;stroke-miterlimit:4;stroke-dasharray:none;stroke-dashoffset:0;stroke-opacity:1;stop-color:#000000;stop-opacity:1"
         d="m 346.04201,531.23987 v -46.5 l 18,-10.5 v 46.5 z"
         id="path11436"
         sodipodi:nodetypes="ccccc" /><path
         style="font-variation-settings:normal;opacity:1;vector-effect:none;fill:#574f55;fill-opacity:1;stroke:none;stroke-width:0.749999px;stroke-linecap:butt;stroke-linejoin:miter;stroke-miterlimit:4;stroke-dasharray:none;stroke-dashoffset:0;stroke-opacity:1;stop-color:#000000;stop-opacity:1"
         d="m 346.04201,531.23987 18,-10.5 16.5,9 -18,10.5 z"
         id="path11438"
         sodipodi:nodetypes="ccccc" /><path
         style="font-variation-settings:normal;opacity:1;vector-effect:none;fill:#a9acb7;fill-opacity:1;stroke:none;stroke-width:0.749999px;stroke-linecap:butt;stroke-linejoin:miter;stroke-miterlimit:4;stroke-dasharray:none;stroke-dashoffset:0;stroke-opacity:1;stop-color:#000000;stop-opacity:1"
         d="m 364.04201,520.73987 v -7.5 l 16.5,9 v 7.5 z"
         id="path62049"
         sodipodi:nodetypes="ccccc" /></g><g
       id="g51644"
       transform="translate(-20.180929,-11.498437)"><path
         style="font-variation-settings:normal;vector-effect:none;fill:#9b7379;fill-opacity:1;stroke:none;stroke-width:0.749999px;stroke-linecap:butt;stroke-linejoin:miter;stroke-miterlimit:4;stroke-dasharray:none;stroke-dashoffset:0;stroke-opacity:1;stop-color:#000000"
         d="m 388.04201,531.98987 -9,-30 10.5,-1.5 9,30.75 z"
         id="path24013"
         sodipodi:nodetypes="ccccc" /><path
         style="font-variation-settings:normal;vector-effect:none;fill:#ebefe1;fill-opacity:1;stroke:none;stroke-width:0.749999px;stroke-linecap:butt;stroke-linejoin:miter;stroke-miterlimit:4;stroke-dasharray:none;stroke-dashoffset:0;stroke-opacity:1;stop-color:#000000"
         d="m 364.04201,510.23987 v -36 l 15,-8.25 v 36 z"
         id="path11430"
         sodipodi:nodetypes="ccccc" /><path
         style="font-variation-settings:normal;vector-effect:none;fill:#78665b;fill-opacity:1;stroke:none;stroke-width:0.749999px;stroke-linecap:butt;stroke-linejoin:miter;stroke-miterlimit:4;stroke-dasharray:none;stroke-dashoffset:0;stroke-opacity:1;stop-color:#000000"
         d="m 373.04201,540.23987 -9.75,-29.625 15.75,-8.625 9,30 10.5,-0.75 -15,7.5 z"
         id="path11432"
         sodipodi:nodetypes="ccccccc" /><path
         style="font-variation-settings:normal;opacity:1;vector-effect:none;fill:#f057bc;fill-opacity:0.464419;stroke:none;stroke-width:0.749999px;stroke-linecap:butt;stroke-linejoin:miter;stroke-miterlimit:4;stroke-dasharray:none;stroke-dashoffset:0;stroke-opacity:1;stop-color:#000000;stop-opacity:1"
         d="m 376.88941,521.00523 -2.40221,-1.14889 -8.14664,-4.80443 0.10445,-2.29776 9.08662,-5.11776 0.20889,2.40222 2.40222,0.62666 z"
         id="path11434" /></g><g
       id="g11347"
       transform="translate(-20.180929,-11.498437)"><path
         style="font-variation-settings:normal;opacity:1;vector-effect:none;fill:#9e6f61;fill-opacity:1;stroke:none;stroke-width:0.749999px;stroke-linecap:butt;stroke-linejoin:miter;stroke-miterlimit:4;stroke-dasharray:none;stroke-dashoffset:0;stroke-opacity:1;stop-color:#000000;stop-opacity:1"
         d="m 379.04201,502.73987 v -36.75 l 17.25,-9.75 v 36.75 z"
         id="path11426"
         sodipodi:nodetypes="ccccc" /><path
         style="font-variation-settings:normal;opacity:1;vector-effect:none;fill:#5d5053;fill-opacity:1;stroke:none;stroke-width:0.749999px;stroke-linecap:butt;stroke-linejoin:miter;stroke-miterlimit:4;stroke-dasharray:none;stroke-dashoffset:0;stroke-opacity:1;stop-color:#000000;stop-opacity:1"
         d="m 398.54201,529.73987 -20.25,-26.625 18,-10.125 19.5,27 z"
         id="path11428"
         sodipodi:nodetypes="ccccc" /><path
         style="font-variation-settings:normal;opacity:1;vector-effect:none;fill:#d3c7c6;fill-opacity:1;stroke:none;stroke-width:0.749999px;stroke-linecap:butt;stroke-linejoin:miter;stroke-miterlimit:4;stroke-dasharray:none;stroke-dashoffset:0;stroke-opacity:1;stop-color:#000000;stop-opacity:1"
         d="m 396.29201,492.98987 v -15 l 19.5,27 v 15 z"
         id="path1362"
         sodipodi:nodetypes="ccccc" /></g><g
       id="g84687"
       transform="translate(-20.180929,-11.498437)"><path
         style="font-variation-settings:normal;opacity:1;vector-effect:none;fill:#dddfd2;fill-opacity:1;stroke:none;stroke-width:0.749999px;stroke-linecap:butt;stroke-linejoin:miter;stroke-miterlimit:4;stroke-dasharray:none;stroke-dashoffset:0;stroke-opacity:1;stop-color:#000000;stop-opacity:1"
         d="m 394.04201,487.36487 v -30 l 9.75,-5.625 v 30 z"
         id="path11422"
         sodipodi:nodetypes="ccccc" /><path
         style="font-variation-settings:normal;opacity:1;vector-effect:none;fill:#463935;fill-opacity:1;stroke:none;stroke-width:0.749999px;stroke-linecap:butt;stroke-linejoin:miter;stroke-miterlimit:4;stroke-dasharray:none;stroke-dashoffset:0;stroke-opacity:1;stop-color:#000000;stop-opacity:1"
         d="m 412.79201,510.98987 -19.5,-23.25 10.5,-6 16.5,24.831 z"
         id="path11424"
         sodipodi:nodetypes="ccccc" /></g><g
       id="g74295"
       transform="translate(-20.180929,-11.498437)"><path
         style="font-variation-settings:normal;opacity:1;vector-effect:none;fill:#edfeb0;fill-opacity:1;stroke:none;stroke-width:0.749999px;stroke-linecap:butt;stroke-linejoin:miter;stroke-miterlimit:4;stroke-dasharray:none;stroke-dashoffset:0;stroke-opacity:1;stop-color:#000000;stop-opacity:1"
         d="m 403.79201,478.73987 v -27 l 27,-15.75 19.84418,11.49844 v 27.50156 l -19.84418,-12 z"
         id="path11410"
         sodipodi:nodetypes="ccccccc" /><path
         style="font-variation-settings:normal;opacity:1;vector-effect:none;fill:#5d5048;fill-opacity:1;stroke:none;stroke-width:0.749999px;stroke-linecap:butt;stroke-linejoin:miter;stroke-miterlimit:4;stroke-dasharray:none;stroke-dashoffset:0;stroke-opacity:1;stop-color:#000000;stop-opacity:1"
         d="m 430.79201,462.98987 -28.425,16.575 20.85,31.425 7.575,-4.5 19.84418,-31.5 z"
         id="path11420"
         sodipodi:nodetypes="cccccc" /><path
         style="font-variation-settings:normal;opacity:1;vector-effect:none;fill:#f057bc;fill-opacity:0.464419;stroke:none;stroke-width:0.749999px;stroke-linecap:butt;stroke-linejoin:miter;stroke-miterlimit:4;stroke-dasharray:none;stroke-dashoffset:0;stroke-opacity:1;stop-color:#000000;stop-opacity:1"
         d="m 411.49814,485.54473 -3.44665,-2.50666 -2.19333,-1.35777 0.41778,-2.71555 1.77555,-1.35777 0.62666,2.29777 2.50666,2.08888 z"
         id="path11412" /><path
         style="font-variation-settings:normal;opacity:1;vector-effect:none;fill:#f057bc;fill-opacity:0.464419;stroke:none;stroke-width:0.749999px;stroke-linecap:butt;stroke-linejoin:miter;stroke-miterlimit:4;stroke-dasharray:none;stroke-dashoffset:0;stroke-opacity:1;stop-color:#000000;stop-opacity:1"
         d="m 415.15368,476.45809 -0.20889,-3.13332 2.50666,-1.56666 0.20889,2.29777 2.92443,2.92444 -0.10445,2.81998 -2.50666,-0.93999 z"
         id="path11414" /><path
         style="font-variation-settings:normal;opacity:1;vector-effect:none;fill:#f057bc;fill-opacity:0.464419;stroke:none;stroke-width:0.749999px;stroke-linecap:butt;stroke-linejoin:miter;stroke-miterlimit:4;stroke-dasharray:none;stroke-dashoffset:0;stroke-opacity:1;stop-color:#000000;stop-opacity:1"
         d="m 421.73365,468.83368 3.5511,3.65554 0.10444,4.17776 -2.71555,-0.7311 -2.61109,-2.29777 -0.31334,-3.02888 z"
         id="path11416" /><path
         style="font-variation-settings:normal;opacity:1;vector-effect:none;fill:#f057bc;fill-opacity:0.464419;stroke:none;stroke-width:0.749999px;stroke-linecap:butt;stroke-linejoin:miter;stroke-miterlimit:4;stroke-dasharray:none;stroke-dashoffset:0;stroke-opacity:1;stop-color:#000000;stop-opacity:1"
         d="m 434.05804,477.60698 -0.31333,-3.34221 3.02887,-3.96887 2.71555,1.87999 v 2.08888 l -1.25333,0.94 z"
         id="path11418" /></g></g><g
     id="g41439"
     transform="translate(-10.697559,-6.255215)"><path
       id="rect26121"
       style="fill:#9a9f97;fill-opacity:1;stroke-width:2.96254;stroke-linecap:square"
       d="m 295.66665,282.48269 5.46756,3.17014 v 5.21577 l -5.46756,-3.17014 z"
       sodipodi:nodetypes="ccccc" /><path
       id="rect8011"
       style="fill:#d2dcd2;fill-opacity:1;stroke-width:1.366;stroke-linecap:square"
       d="m 296.42935,282.85182 v 1.90234 l -0.7871,-0.45993 v 0.14453 l 0.7871,0.45993 v 1.31641 l -0.7871,-0.45993 v 0.14453 l 0.7871,0.45993 v 1.38867 l -0.7871,-0.45993 v 0.39453 l 0.7871,0.45993 0.14454,0.087 0.88281,0.52208 0.14453,0.087 0.88281,0.50965 0.14453,0.087 0.88282,0.52208 0.14257,0.0746 0.88282,0.50965 0.14453,0.087 0.39258,0.21132 v -0.39453 l -0.39258,-0.21132 c 0.006,-0.10821 0.0246,0.47386 0,-1.38867 l 0.39258,0.21132 v -0.14453 l -0.39258,-0.21132 v -1.31641 l 0.39258,0.21132 v -0.14453 l -0.39258,-0.21132 v -1.90234 l -0.14453,-0.0871 v 1.90234 l -0.88282,-0.50965 v -1.90234 l -0.14257,-0.0746 v 1.90234 l -0.88282,-0.52208 v -1.90234 l -0.14453,-0.087 v 1.90234 l -0.88281,-0.50965 v -1.90234 l -0.14453,-0.087 v 1.90234 l -0.88281,-0.52208 v -1.90234 z m 0.14454,2.13388 0.88281,0.52208 v 1.31641 l -0.88281,-0.52208 z m 1.02734,0.60909 0.88281,0.50965 v 1.31641 l -0.88281,-0.50965 z m 1.02734,0.59666 0.88282,0.52208 v 1.31641 l -0.88282,-0.52208 z m 1.02539,0.59666 0.88282,0.50965 v 1.31641 l -0.88282,-0.50965 z m -3.08007,-0.34147 0.88281,0.52208 v 1.38867 l -0.88281,-0.52208 z m 1.02734,0.60909 0.88281,0.50965 v 1.38867 l -0.88281,-0.50965 z m 1.02734,0.59666 0.88282,0.52208 v 1.38867 l -0.88282,-0.52208 z m 1.02539,0.59666 0.88282,0.50965 v 1.38867 l -0.88282,-0.50965 z"
       sodipodi:nodetypes="ccccccccccccccccccccccccccccccccccccccccccccccccccccccccccccccccccccccccccccccccccccccccccc" /><path
       id="path26124"
       style="fill:#687c7b;fill-opacity:1;stroke-width:2.68025;stroke-linecap:square"
       d="m 296.66949,289.08016 3.8094,2.27389 0.0632,6.15188 -3.8094,-2.2739 z"
       sodipodi:nodetypes="ccccc" /><path
       id="rect10714"
       style="fill:#f4f7f8;fill-opacity:1;stroke-width:3.39672;stroke-linecap:square"
       d="m 296.43267,288.64842 v 9.06446 l 4.32422,2.50549 v -9.06446 z m 1.78321,1.52231 v 1.53906 l -1.20899,0.21188 v -1.54102 z m 0.75585,0.44693 1.20899,1.28565 v 1.51997 l -1.20899,-1.39094 z m -0.75585,1.31872 v 1.53906 l -1.20899,0.21187 v -1.54101 z m 0.75585,0.44883 1.20899,1.39094 v 1.60222 l -1.20899,-1.58042 z m -0.75585,1.31677 v 1.89258 l -1.20899,-0.71586 v -0.9668 z m 0.75585,0.44883 1.20899,1.58042 v 1.10551 l -1.20899,-0.84218 z"
       sodipodi:nodetypes="ccccccccccccccccccccccccccccccccccc" /><path
       id="rect483"
       style="fill:#bcaf9c;fill-opacity:1;stroke-width:2.8606;stroke-linecap:square"
       d="m 298.01981,282.65441 v 0.47851 l -1.88281,-0.54039 -1.13867,-0.77722 v 0.5039 l 0.33789,0.22206 v 0.42794 4.52539 l -0.33789,-0.14804 v 0.5039 l 0.33789,0.14804 v 9.10743 l 1.11523,0.62918 v -8.93687 l 4.25195,2.49283 v 8.92515 l 1.11524,0.62918 v -9.10743 l 0.23047,0.14804 v -0.5039 l -0.23047,-0.14804 v -5.02735 l 0.29492,0.14804 v -0.5039 l -1.17578,-0.77722 -1.80274,-1.36801 v -0.49609 z m 0.1582,1.33203 0.74014,0.40711 1.41025,1.31401 0.375,0.39711 v 4.5 l -4.25195,-2.48113 v -4.58203 l 0.5,0.0856 z"
       sodipodi:nodetypes="ccccccccccccccccccccccccccccccccccccc" /></g><path
     id="right-1"
     style="fill:#916f7c;stroke-width:0.859658;stroke-linecap:square"
     d="m 218.17716,342.81053 h 5 v 5 h -5 z" /><path
     id="right-2"
     style="fill:#916f7c;stroke-width:0.859658;stroke-linecap:square"
     d="m 285.30859,303.4671 h 5 v 5 h -5 z" /><g
     id="g45192"><path
       id="rect44842"
       style="opacity:1;fill:#7a9aa7;stroke-width:1.88976;stroke-linecap:square;fill-opacity:1"
       d="m 271.23748,268.54605 12.06165,6.61231 -0.16614,14.71985 -12.09487,-7.11072 z"
       sodipodi:nodetypes="ccccc" /><path
       id="rect1753"
       style="opacity:1;fill:#fafcf7;fill-opacity:1;stroke-width:0.932673;stroke-linecap:square"
       d="m 270.78063,267.74552 v 0.89844 3.71875 0.68359 9.36725 0.32614 l 12.54508,7.31009 h 0.0508 l 0.1908,-15.0274 h -0.0508 z m 0.90039,1.36363 3.30995,1.86075 v 3.71875 l -3.30995,-1.86075 z m 3.74159,2.02689 3.31191,2.12657 v 3.71875 l -3.31191,-2.12657 z m 3.74355,2.29271 3.30994,2.02688 v 3.71875 l -3.30994,-2.02688 z m -7.48514,0.0827 10.79508,6.34648 v 9.36725 l -10.79508,-6.34648 z"
       sodipodi:nodetypes="ccccccccccccccccccccccccccccccc" /></g><g
     id="g45287"
     transform="translate(21.531356,12.540185)"><path
       id="path45283"
       style="opacity:1;fill:#5e808e;fill-opacity:1;stroke-width:1.88976;stroke-linecap:square"
       d="m 271.23748,268.54605 12.06165,6.61231 -0.16614,14.71985 -12.09487,-7.11072 z"
       sodipodi:nodetypes="ccccc" /><path
       id="path45285"
       style="opacity:1;fill:#fafcf7;fill-opacity:1;stroke-width:0.932673;stroke-linecap:square"
       d="m 270.78063,267.74552 v 0.89844 3.71875 0.68359 9.36725 0.32614 l 12.54508,7.31009 h 0.0508 l 0.1908,-15.0274 h -0.0508 z m 0.90039,1.36363 3.30995,1.86075 v 3.71875 l -3.30995,-1.86075 z m 3.74159,2.02689 3.31191,2.12657 v 3.71875 l -3.31191,-2.12657 z m 3.74355,2.29271 3.30994,2.02688 v 3.71875 l -3.30994,-2.02688 z m -7.48514,0.0827 10.79508,6.34648 v 9.36725 l -10.79508,-6.34648 z"
       sodipodi:nodetypes="ccccccccccccccccccccccccccccccc" /></g><path
     id="path48661"
     style="opacity:1;fill:#e95850;fill-opacity:1;stroke-width:3.0758;stroke-linecap:square"
     d="m 292.76,279.67263 12.31461,7.02037 -2.99961,3.95 -12.315,-7.02 z"
     sodipodi:nodetypes="ccccc" /><path
     id="rect1844"
     style="opacity:1;fill:#e0e0cc;fill-opacity:1;stroke-width:3.0758;stroke-linecap:square"
     d="m 271.36945,267.17931 12.31439,7.02033 -2.99984,5.53536 -12.315,-7.021 z"
     sodipodi:nodetypes="ccccc" /><path
     id="left-2"
     style="fill:#916f7c;stroke-width:0.859658;stroke-linecap:square"
     d="m 102.62304,231.65848 h 5 v 5 h -5 z" /><path
     id="left-1"
     style="fill:#916f7c;stroke-width:0.859658;stroke-linecap:square"
     d="m 13.756428,284.20808 h 5 v 5 h -5 z" /><path
     id="right-3"
     style="fill:#ff7f2a;fill-opacity:1;stroke-width:0.859658;stroke-linecap:square"
     d="m 74.009649,248.71646 h 5 v 5 h -5 z" /><path
     id="right-4"
     style="fill:#ff7f2a;fill-opacity:1;stroke-width:0.859658;stroke-linecap:square"
     d="m 135.91364,212.94971 h 5 v 5 h -5 z" /><path
     id="left-3"
     style="fill:#ff7f2a;fill-opacity:1;stroke-width:0.859658;stroke-linecap:square"
     d="m 164.52704,373.90008 h 5 v 5 h -5 z" /><path
     id="left-4"
     style="fill:#ff7f2a;fill-opacity:1;stroke-width:0.859658;stroke-linecap:square"
     d="m 242.3885,329.05408 h 5 v 5 h -5 z" /><path
     id="pl-1"
     style="fill:#cd4f86;fill-opacity:1;fill-rule:nonzero;stroke:none;stroke-width:0.00377953;stroke-dasharray:none"
     d="m 105.34095,198.43328 c -2.00985,0 -3.63916,1.62931 -3.63916,3.63915 0,2.00985 1.62931,3.63947 3.63916,3.63947 2.00984,0 3.63915,-1.62962 3.63915,-3.63947 0,-2.00984 -1.62931,-3.63915 -3.63915,-3.63915 z m -2.27903,7.98494 c -2.45865,0 -4.451769,1.99313 -4.451769,4.45177 v 9.46802 c 0,0.64889 0.52601,1.1749 1.17489,1.1749 0.648669,0 1.174899,-0.52601 1.174899,-1.1749 v -8.27206 c 0,-0.12682 0.22957,-0.22988 0.22957,-0.22988 0,0 0.22957,0.10306 0.22957,0.22988 v 21.34968 c 0,1.0197 1.84599,1.84599 1.84599,1.84599 0,0 1.84631,-0.82629 1.84631,-1.84599 v -10.9596 c 0,-0.12682 0.22957,-0.22957 0.22957,-0.22957 0,0 0.22957,0.10275 0.22957,0.22957 v 10.9596 c 0,1.0197 1.8463,1.84599 1.8463,1.84599 0,0 1.846,-0.82629 1.846,-1.84599 v -21.34968 c 0,-0.12682 0.22957,-0.22988 0.22957,-0.22988 0,0 0.22957,0.10306 0.22957,0.22988 v 8.27206 c 0,0.64889 0.52622,1.1749 1.17489,1.1749 0.64888,0 1.17489,-0.52601 1.17489,-1.1749 v -9.46802 c 0,-2.45864 -1.99312,-4.45177 -4.45176,-4.45177 z" /><g
     id="g4687"
     transform="translate(3.3159311,-22.208083)"><path
       style="font-variation-settings:normal;opacity:1;vector-effect:none;fill:#90bacd;fill-opacity:1;stroke:none;stroke-width:0.749999px;stroke-linecap:butt;stroke-linejoin:miter;stroke-miterlimit:4;stroke-dasharray:none;stroke-dashoffset:0;stroke-opacity:1;stop-color:#000000;stop-opacity:1"
       d="m 383.86323,445.4777 0.0164,-5.16732 4.16666,-2.49343 -0.0656,5.46259 -2.0013,1.5584 z"
       id="path4683"
       transform="matrix(1.3333333,0,0,-1.3333333,-241.38933,869.31981)" /><path
       id="path4685"
       style="opacity:1;fill:#fcfdfa;fill-opacity:1;stroke-width:1.88976;stroke-linecap:square"
       d="m 273.18033,275.62696 c -0.97422,-0.45404 -3.05859,-0.82586 -3.05859,-0.82586 v 1.01758 l 0.006,-0.002 v 6.53907 l 6.14645,3.59386 v -6.53711 c 2e-5,10e-6 0.002,0 0.002,0 v -1.01758 c -0.27323,-1.05445 -2.12164,-2.31392 -3.09586,-2.76796 z m 0.25586,1.25274 c 0.99558,0.4326 2.16668,1.33895 2.17187,1.89286 v 0.9707 l -2.17187,-1.31083 z m -0.4707,-0.22144 v 1.55078 l -2.17188,-1.31479 v -0.96289 c 0.62844,0.0134 1.46085,0.2404 2.17188,0.7269 z m -2.17188,0.7067 2.17188,1.31479 v 1.04687 l -2.17188,-1.31479 z m 2.64258,1.53823 2.17187,1.31083 v 1.04687 l -2.17187,-1.31083 z m -2.64258,-0.25694 2.17188,1.31479 v 1.04882 l -2.17188,-1.31479 z m 2.64258,1.53823 2.17187,1.31083 v 1.04882 l -2.17187,-1.31083 z m -2.64258,-0.25504 2.17188,1.31479 v 1.04687 l -2.17188,-1.31479 z m 2.64258,1.53823 2.17187,1.31083 v 1.04687 l -2.17187,-1.31083 z m -2.64258,-0.25694 2.17188,1.31479 v 1.04883 l -2.17188,-1.31479 z m 2.64258,1.53823 2.17187,1.31083 v 1.04883 l -2.17187,-1.31083 z"
       sodipodi:nodetypes="zcccccccczcccccccccccccccccccccccccccccccccccccccccccccccccc" /></g><g
     id="g4693"
     transform="translate(14.725377,-15.397701)"><path
       style="font-variation-settings:normal;opacity:1;vector-effect:none;fill:#90bacd;fill-opacity:1;stroke:none;stroke-width:0.749999px;stroke-linecap:butt;stroke-linejoin:miter;stroke-miterlimit:4;stroke-dasharray:none;stroke-dashoffset:0;stroke-opacity:1;stop-color:#000000;stop-opacity:1"
       d="m 383.86323,445.4777 0.0164,-5.16732 4.16666,-2.49343 -0.0656,5.46259 -2.0013,1.5584 z"
       id="path4689"
       transform="matrix(1.3333333,0,0,-1.3333333,-241.38933,869.31981)" /><path
       id="path4691"
       style="opacity:1;fill:#fcfdfa;fill-opacity:1;stroke-width:1.88976;stroke-linecap:square"
       d="m 273.18033,275.62696 c -0.97422,-0.45404 -3.05859,-0.82586 -3.05859,-0.82586 v 1.01758 l 0.006,-0.002 v 6.53907 l 6.14645,3.59386 v -6.53711 c 2e-5,10e-6 0.002,0 0.002,0 v -1.01758 c -0.27323,-1.05445 -2.12164,-2.31392 -3.09586,-2.76796 z m 0.25586,1.25274 c 0.99558,0.4326 2.16668,1.33895 2.17187,1.89286 v 0.9707 l -2.17187,-1.31083 z m -0.4707,-0.22144 v 1.55078 l -2.17188,-1.31479 v -0.96289 c 0.62844,0.0134 1.46085,0.2404 2.17188,0.7269 z m -2.17188,0.7067 2.17188,1.31479 v 1.04687 l -2.17188,-1.31479 z m 2.64258,1.53823 2.17187,1.31083 v 1.04687 l -2.17187,-1.31083 z m -2.64258,-0.25694 2.17188,1.31479 v 1.04882 l -2.17188,-1.31479 z m 2.64258,1.53823 2.17187,1.31083 v 1.04882 l -2.17187,-1.31083 z m -2.64258,-0.25504 2.17188,1.31479 v 1.04687 l -2.17188,-1.31479 z m 2.64258,1.53823 2.17187,1.31083 v 1.04687 l -2.17187,-1.31083 z m -2.64258,-0.25694 2.17188,1.31479 v 1.04883 l -2.17188,-1.31479 z m 2.64258,1.53823 2.17187,1.31083 v 1.04883 l -2.17187,-1.31083 z"
       sodipodi:nodetypes="zcccccccczcccccccccccccccccccccccccccccccccccccccccccccccccc" /></g><g
     id="g4705"
     transform="translate(26.134822,-8.684497)"><path
       style="font-variation-settings:normal;opacity:1;vector-effect:none;fill:#90bacd;fill-opacity:1;stroke:none;stroke-width:0.749999px;stroke-linecap:butt;stroke-linejoin:miter;stroke-miterlimit:4;stroke-dasharray:none;stroke-dashoffset:0;stroke-opacity:1;stop-color:#000000;stop-opacity:1"
       d="m 383.86323,445.4777 0.0164,-5.16732 4.16666,-2.49343 -0.0656,5.46259 -2.0013,1.5584 z"
       id="path4701"
       transform="matrix(1.3333333,0,0,-1.3333333,-241.38933,869.31981)" /><path
       id="path4703"
       style="opacity:1;fill:#fcfdfa;fill-opacity:1;stroke-width:1.88976;stroke-linecap:square"
       d="m 273.18033,275.62696 c -0.97422,-0.45404 -3.05859,-0.82586 -3.05859,-0.82586 v 1.01758 l 0.006,-0.002 v 6.53907 l 6.14645,3.59386 v -6.53711 c 2e-5,10e-6 0.002,0 0.002,0 v -1.01758 c -0.27323,-1.05445 -2.12164,-2.31392 -3.09586,-2.76796 z m 0.25586,1.25274 c 0.99558,0.4326 2.16668,1.33895 2.17187,1.89286 v 0.9707 l -2.17187,-1.31083 z m -0.4707,-0.22144 v 1.55078 l -2.17188,-1.31479 v -0.96289 c 0.62844,0.0134 1.46085,0.2404 2.17188,0.7269 z m -2.17188,0.7067 2.17188,1.31479 v 1.04687 l -2.17188,-1.31479 z m 2.64258,1.53823 2.17187,1.31083 v 1.04687 l -2.17187,-1.31083 z m -2.64258,-0.25694 2.17188,1.31479 v 1.04882 l -2.17188,-1.31479 z m 2.64258,1.53823 2.17187,1.31083 v 1.04882 l -2.17187,-1.31083 z m -2.64258,-0.25504 2.17188,1.31479 v 1.04687 l -2.17188,-1.31479 z m 2.64258,1.53823 2.17187,1.31083 v 1.04687 l -2.17187,-1.31083 z m -2.64258,-0.25694 2.17188,1.31479 v 1.04883 l -2.17188,-1.31479 z m 2.64258,1.53823 2.17187,1.31083 v 1.04883 l -2.17187,-1.31083 z"
       sodipodi:nodetypes="zcccccccczcccccccccccccccccccccccccccccccccccccccccccccccccc" /></g><image
     width="98.510414"
     height="55.412098"
     preserveAspectRatio="none"
     xlink:href="../photo/facade/n-3-prato.jpg"
     id="image803"
     x="306.34647"
     y="302.96014"
     style="opacity:0.961078" /><g
     aria-label="PROTA"
     id="text8270"
     style="font-size:2.4px;line-height:1.25;font-family:Arial;-inkscape-font-specification:Arial;fill:#1f6bbe"
     transform="matrix(1,0.58135677,0,1,-0.54870261,-160.84415)"><path
       d="m 274.21752,268.76004 v -1.71797 h 0.55664 q 0.3164,0 0.4125,0.0258 0.14765,0.0387 0.24726,0.16875 0.0996,0.12891 0.0996,0.33399 0,0.1582 -0.0574,0.26601 -0.0574,0.10782 -0.14648,0.16992 -0.0879,0.0609 -0.1793,0.0809 -0.12422,0.0246 -0.35977,0.0246 h -0.22617 v 0.64805 z m 0.34687,-1.42734 v 0.4875 h 0.18985 q 0.20507,0 0.27421,-0.027 0.0691,-0.0269 0.10782,-0.0844 0.0398,-0.0574 0.0398,-0.1336 0,-0.0937 -0.0551,-0.15468 -0.0551,-0.0609 -0.13945,-0.0762 -0.0621,-0.0117 -0.24961,-0.0117 z"
       style="font-weight:bold;-inkscape-font-specification:'Arial Bold'"
       id="path84654" /><path
       d="m 275.81947,268.76004 v -1.71797 h 0.73008 q 0.27539,0 0.39961,0.0469 0.12539,0.0457 0.20039,0.16406 0.075,0.11836 0.075,0.2707 0,0.19336 -0.11367,0.31992 -0.11368,0.12539 -0.33985,0.15821 0.1125,0.0656 0.18516,0.14414 0.0738,0.0785 0.19805,0.2789 l 0.20976,0.33516 h -0.41484 l -0.25078,-0.37383 q -0.1336,-0.20039 -0.18282,-0.25195 -0.0492,-0.0527 -0.10429,-0.0715 -0.0551,-0.0199 -0.17461,-0.0199 h -0.0703 v 0.71719 z m 0.34688,-0.99141 h 0.25664 q 0.24961,0 0.31171,-0.0211 0.0621,-0.0211 0.0973,-0.0727 0.0352,-0.0516 0.0352,-0.1289 0,-0.0867 -0.0469,-0.13946 -0.0457,-0.0539 -0.13008,-0.068 -0.0422,-0.006 -0.25312,-0.006 h -0.2707 z"
       style="font-weight:bold;-inkscape-font-specification:'Arial Bold'"
       id="path84656" /><path
       d="m 277.48119,267.9116 q 0,-0.2625 0.0785,-0.44062 0.0586,-0.13125 0.15938,-0.23555 0.10195,-0.1043 0.22266,-0.15469 0.16054,-0.068 0.37031,-0.068 0.37969,0 0.60703,0.23555 0.22852,0.23555 0.22852,0.65508 0,0.41602 -0.22618,0.65156 -0.22617,0.23438 -0.60468,0.23438 -0.38321,0 -0.60938,-0.23321 -0.22617,-0.23437 -0.22617,-0.64453 z m 0.35742,-0.0117 q 0,0.2918 0.13477,0.44297 0.13476,0.15 0.34218,0.15 0.20743,0 0.33985,-0.14883 0.13359,-0.15 0.13359,-0.44882 0,-0.29532 -0.13008,-0.44063 -0.1289,-0.14531 -0.34336,-0.14531 -0.21445,0 -0.3457,0.14766 -0.13125,0.14648 -0.13125,0.44296 z"
       style="font-weight:bold;-inkscape-font-specification:'Arial Bold'"
       id="path84658" /><path
       d="m 279.80502,268.76004 v -1.42734 h -0.50977 v -0.29063 h 1.36524 v 0.29063 h -0.5086 v 1.42734 z"
       style="font-weight:bold;-inkscape-font-specification:'Arial Bold'"
       id="path84660" /><path
       d="m 282.25541,268.76004 h -0.37735 l -0.15,-0.39023 h -0.68671 l -0.1418,0.39023 h -0.36797 l 0.66914,-1.71797 h 0.3668 z m -0.63867,-0.67969 -0.23672,-0.6375 -0.23203,0.6375 z"
       style="font-weight:bold;-inkscape-font-specification:'Arial Bold'"
       id="path84662" /></g><g
     aria-label="Kombs"
     id="text32281"
     style="font-size:2.00001px;line-height:1.25;font-family:Arial;-inkscape-font-specification:Arial;letter-spacing:-0.01px;fill:#ee3121"
     transform="matrix(1,0.57735027,0,1,-1.1212618,-170.81213)"><path
       d="m 297.61133,279.72988 v -0.35001 c 0,-0.016 0.004,-0.026 0.01,-0.036 l 0.11,-0.168 c 0.004,-0.008 0.014,-0.008 0.018,0.002 l 0.262,0.55401 c 0.006,0.014 0.018,0.022 0.034,0.022 h 0.22 c 0.018,0 0.026,-0.01 0.018,-0.028 l -0.366,-0.74801 c -0.008,-0.016 -0.008,-0.026 0.002,-0.042 l 0.354,-0.554 c 0.01,-0.018 0.002,-0.028 -0.016,-0.028 h -0.234 c -0.012,0 -0.022,0.004 -0.028,0.016 l -0.37,0.59 c -0.006,0.01 -0.014,0.008 -0.014,-0.004 v -0.578 c 0,-0.014 -0.01,-0.024 -0.024,-0.024 h -0.196 c -0.014,0 -0.024,0.01 -0.024,0.024 v 1.35201 c 0,0.014 0.01,0.024 0.024,0.024 h 0.196 c 0.014,0 0.024,-0.01 0.024,-0.024 z"
       style="font-weight:bold;font-family:'Berlin Type';-inkscape-font-specification:'Berlin Type Bold'"
       id="path84665" /><path
       d="m 298.82133,279.77988 c 0.29,0 0.498,-0.22801 0.498,-0.50401 0,-0.276 -0.208,-0.504 -0.498,-0.504 -0.29,0 -0.49801,0.228 -0.49801,0.504 0,0.276 0.20801,0.50401 0.49801,0.50401 z m 0,-0.22201 c -0.156,0 -0.256,-0.13 -0.256,-0.282 0,-0.152 0.1,-0.282 0.256,-0.282 0.156,0 0.256,0.13 0.256,0.282 0,0.152 -0.1,0.282 -0.256,0.282 z"
       style="font-weight:bold;font-family:'Berlin Type';-inkscape-font-specification:'Berlin Type Bold'"
       id="path84667" /><path
       d="m 299.74333,279.72988 v -0.61001 c 0,-0.02 0.004,-0.034 0.016,-0.05 0.032,-0.046 0.08,-0.084 0.144,-0.084 0.096,0 0.148,0.062 0.148,0.17 v 0.57401 c 0,0.014 0.01,0.024 0.024,0.024 h 0.19 c 0.014,0 0.024,-0.01 0.024,-0.024 v -0.61601 c 0,-0.016 0.002,-0.028 0.012,-0.042 0.03,-0.048 0.078,-0.086 0.148,-0.086 0.086,0 0.15,0.058 0.15,0.17 v 0.57401 c 0,0.014 0.01,0.024 0.024,0.024 h 0.19 c 0.014,0 0.024,-0.01 0.024,-0.024 v -0.60601 c 0,-0.21 -0.114,-0.352 -0.316,-0.352 -0.12,0 -0.208,0.068 -0.266,0.138 -0.008,0.008 -0.014,0.008 -0.02,-0.002 -0.05,-0.084 -0.14,-0.136 -0.26,-0.136 -0.094,0 -0.17,0.042 -0.228,0.098 -0.008,0.008 -0.014,0.004 -0.014,-0.006 v -0.038 c 0,-0.014 -0.01,-0.024 -0.024,-0.024 h -0.18 c -0.014,0 -0.024,0.01 -0.024,0.024 v 0.90401 c 0,0.014 0.01,0.024 0.024,0.024 h 0.19 c 0.014,0 0.024,-0.01 0.024,-0.024 z"
       style="font-weight:bold;font-family:'Berlin Type';-inkscape-font-specification:'Berlin Type Bold'"
       id="path84669" /><path
       d="m 301.31334,278.32987 c 0,-0.014 -0.01,-0.024 -0.024,-0.024 h -0.19001 c -0.014,0 -0.024,0.01 -0.024,0.024 v 1.40001 c 0,0.014 0.01,0.024 0.024,0.024 h 0.17801 c 0.014,0 0.024,-0.01 0.024,-0.024 v -0.044 c 0,-0.014 0.008,-0.016 0.018,-0.004 0.06,0.06 0.15,0.1 0.268,0.1 0.262,0 0.458,-0.20201 0.458,-0.50401 0,-0.3 -0.196,-0.504 -0.458,-0.504 -0.112,0 -0.196,0.032 -0.256,0.086 -0.012,0.012 -0.018,0.006 -0.018,-0.004 z m 0.224,1.24 c -0.098,0 -0.172,-0.05 -0.214,-0.114 -0.008,-0.014 -0.01,-0.026 -0.01,-0.038 v -0.28 c 0,-0.012 0.002,-0.024 0.01,-0.038 0.042,-0.064 0.116,-0.114 0.214,-0.114 0.166,0 0.266,0.12 0.266,0.292 0,0.172 -0.1,0.292 -0.266,0.292 z"
       style="font-weight:bold;font-family:'Berlin Type';-inkscape-font-specification:'Berlin Type Bold'"
       id="path84671" /><path
       d="m 302.51134,279.78188 c 0.22,0 0.344,-0.132 0.344,-0.30801 0,-0.156 -0.102,-0.27 -0.266,-0.3 l -0.078,-0.016 c -0.064,-0.012 -0.094,-0.04 -0.094,-0.092 0,-0.052 0.04,-0.088 0.102,-0.088 0.058,0 0.096,0.034 0.112,0.082 0.004,0.016 0.016,0.022 0.03,0.018 l 0.156,-0.046 c 0.014,-0.004 0.022,-0.014 0.018,-0.03 -0.046,-0.14 -0.164,-0.23 -0.318,-0.23 -0.2,0 -0.328,0.136 -0.328,0.3 0,0.154 0.092,0.264 0.238,0.292 l 0.08,0.014 c 0.072,0.014 0.122,0.044 0.122,0.104 0,0.062 -0.05,0.096 -0.12,0.096 -0.05,0 -0.102,-0.03 -0.126,-0.09 -0.006,-0.016 -0.016,-0.022 -0.03,-0.016 l -0.162,0.056 c -0.014,0.006 -0.02,0.016 -0.014,0.03 0.046,0.13601 0.166,0.22401 0.334,0.22401 z"
       style="font-weight:bold;font-family:'Berlin Type';-inkscape-font-specification:'Berlin Type Bold'"
       id="path84673" /></g><path
     id="rect39595"
     style="opacity:1;fill:#c8d794;stroke-width:0.977754;stroke-linecap:square;fill-opacity:1"
     d="m 306.00075,267.45827 h 0.22622 v 35.57594 h -0.22622 z" /><path
     id="pr-1"
     style="fill:#92cd4f;fill-opacity:1;fill-rule:nonzero;stroke:none;stroke-width:0.00214223"
     d="m 287.86226,270.14616 c -2.00985,0 -3.63916,1.62931 -3.63916,3.63915 0,2.00985 1.62931,3.63947 3.63916,3.63947 2.00984,0 3.63915,-1.62962 3.63915,-3.63947 0,-2.00984 -1.62931,-3.63915 -3.63915,-3.63915 z m -2.27903,7.98494 c -2.45865,0 -4.45177,1.99313 -4.45177,4.45177 v 9.46802 c 0,0.64889 0.52601,1.1749 1.17489,1.1749 0.64867,0 1.1749,-0.52601 1.1749,-1.1749 v -8.27206 c 0,-0.12682 0.22957,-0.22988 0.22957,-0.22988 0,0 0.22957,0.10306 0.22957,0.22988 v 21.34968 c 0,1.0197 1.84599,1.84599 1.84599,1.84599 0,0 1.84631,-0.82629 1.84631,-1.84599 v -10.9596 c 0,-0.12682 0.22957,-0.22957 0.22957,-0.22957 0,0 0.22957,0.10275 0.22957,0.22957 v 10.9596 c 0,1.0197 1.8463,1.84599 1.8463,1.84599 0,0 1.846,-0.82629 1.846,-1.84599 v -21.34968 c 0,-0.12682 0.22957,-0.22988 0.22957,-0.22988 0,0 0.22957,0.10306 0.22957,0.22988 v 8.27206 c 0,0.64889 0.52622,1.1749 1.17489,1.1749 0.64888,0 1.17489,-0.52601 1.17489,-1.1749 v -9.46802 c 0,-2.45864 -1.99312,-4.45177 -4.45176,-4.45177 z" /></svg>
